<svg id="SvgjsSvg1001" width="288" height="288" xmlns="http://www.w3.org/2000/svg" version="1.1" xmlns:xlink="http://www.w3.org/1999/xlink" xmlns:svgjs="http://svgjs.com/svgjs"><defs id="SvgjsDefs1002"></defs><g id="SvgjsG1008"><svg xmlns="http://www.w3.org/2000/svg" width="288" height="288" version="1.0" viewBox="0 0 1604 1614"><g transform="matrix(.1 0 0 -.1 0 1614)" fill="#08949a" class="color000 svgShape"><path d="M0 8070 l0 -8070 8020 0 8020 0 0 8070 0 8070 -8020 0 -8020 0 0-8070z m8134 5079 c39 -23 73 -44 75 -45 2 -2 -18 -50 -44 -106 -26 -57 -64
-137 -83 -178 -19 -41 -52 -113 -74 -159 -22 -46 -48 -103 -58 -126 -10 -24
-22 -45 -27 -48 -5 -3 -20 11 -33 31 -53 78 -170 248 -178 257 -18 23 -113
166 -118 178 -3 8 15 24 46 41 28 15 119 68 203 117 176 105 177 105 291 38z
m194 -112 c11 -9 45 -29 202 -119 167 -96 256 -149 388 -227 85 -50 156 -91
158 -91 2 0 43 -24 91 -54 49 -29 110 -65 136 -80 27 -15 51 -34 54 -42 3 -8
-38 -92 -90 -187 -52 -94 -111 -202 -131 -239 -87 -163 -199 -369 -326 -598
-25 -47 -49 -93 -53 -102 -9 -25 -19 -22 -39 10 -9 15 -53 79 -97 142 -45 63
-84 122 -88 130 -3 8 -14 24 -24 35 -9 11 -41 56 -71 100 -92 136 -240 353
-352 514 -58 85 -106 161 -106 169 0 17 21 65 152 342 28 58 68 143 90 190 22
47 44 95 49 107 8 23 27 23 57 0z m-768 -179 c24 -35 86 -126 138 -203 135
-199 175 -255 182 -255 4 0 14 16 24 37 l17 36 26 -38 c25 -37 25 -37 7 -77
l-18 -40 -27 33 c-15 19 -30 32 -32 29 -3 -3 -63 -131 -135 -285 -71 -154
-159 -342 -196 -419 -36 -76 -66 -140 -66 -141 0 -2 -31 -69 -70 -150 -38 -81
-70 -148 -70 -150 0 -2 -29 -63 -64 -136 -35 -74 -86 -183 -114 -244 -28 -60
-84 -181 -126 -268 -42 -87 -76 -160 -76 -162 0 -2 -23 -53 -51 -112 -28 -59
-71 -151 -96 -203 l-45 -95 -21 26 c-12 14 -51 62 -87 105 -35 44 -69 84 -75
90 -5 7 -44 54 -85 105 -41 51 -93 114 -115 139 -22 26 -65 77 -95 115 -47 58
-132 162 -188 230 -47 57 -143 173 -234 286 -57 69 -150 183 -208 253 -58 70
-107 135 -110 144 -3 10 -5 73 -5 140 l0 124 40 22 c41 24 138 80 355 206 69
41 179 105 245 143 66 39 152 89 190 112 39 23 140 82 225 132 354 206 483
281 640 373 130 77 267 156 276 160 1 0 21 -28 44 -62z m2094 -597 c103 -61
189 -111 191 -111 3 0 29 -16 59 -35 30 -19 57 -35 60 -35 3 0 45 -24 93 -53
49 -30 120 -72 158 -94 39 -23 117 -68 175 -102 l105 -62 1 -787 1 -787 -45
-85 c-24 -47 -68 -128 -97 -180 -29 -52 -67 -122 -85 -155 -18 -33 -49 -89
-69 -126 -20 -36 -61 -111 -91 -167 -30 -56 -57 -102 -61 -102 -7 0 -88 115
-270 380 -62 91 -154 226 -205 300 -51 74 -132 193 -181 264 -132 193 -218
319 -317 462 -105 152 -244 356 -267 390 l-16 25 -17 -25 c-9 -14 -16 -30 -16
-36 0 -20 -19 -9 -39 24 -21 33 -21 35 -4 65 22 37 35 39 53 6 7 -14 16 -25
20 -25 6 0 61 99 295 530 32 58 71 130 88 160 80 147 197 362 228 418 24 45
38 62 50 59 9 -2 100 -54 203 -116z m-1605 -115 c48 -72 163 -241 256 -376 92
-135 206 -301 253 -370 47 -69 95 -139 108 -156 13 -17 24 -38 24 -47 0 -20
-188 -373 -495 -927 -29 -52 -72 -131 -95 -175 -23 -44 -50 -93 -60 -110 -16
-28 -31 -56 -126 -232 -20 -38 -58 -106 -84 -153 -26 -47 -68 -123 -92 -170
-127 -240 -190 -350 -199 -350 -4 0 -22 19 -41 42 -18 24 -40 52 -50 63 -9 11
-40 49 -70 85 -162 195 -379 459 -443 539 -16 20 -49 59 -71 86 l-42 48 -19
-38 -19 -37 -27 32 -27 32 -49 -104 c-27 -56 -96 -204 -154 -328 -58 -124
-121 -259 -140 -300 -20 -41 -92 -196 -162 -345 -69 -148 -130 -274 -135 -279
-5 -5 -29 4 -57 21 -26 17 -124 74 -218 128 -93 54 -187 109 -207 121 -21 13
-42 24 -48 24 -5 0 -10 6 -11 13 -4 51 -3 2487 1 2487 3 0 10 -8 16 -17 7 -10
62 -79 124 -153 62 -74 124 -150 139 -168 14 -19 44 -55 66 -81 22 -26 65 -78
95 -116 80 -98 169 -206 194 -235 11 -13 39 -47 61 -76 22 -28 132 -163 245
-299 113 -136 213 -257 222 -269 15 -18 19 -19 28 -6 5 8 10 20 10 26 0 6 6
16 13 22 10 9 17 4 31 -18 9 -17 20 -30 24 -30 4 0 19 26 34 58 59 129 341
729 453 967 32 66 83 176 115 245 32 69 101 217 155 330 98 208 125 266 165
355 13 28 60 128 106 224 73 152 86 172 99 161 9 -7 55 -72 104 -144z m738
-1078 c17 -24 65 -95 108 -158 44 -63 106 -155 140 -205 201 -293 378 -550
426 -620 77 -112 285 -414 339 -494 137 -202 203 -291 211 -285 6 3 14 17 19
30 12 31 27 31 42 -1 6 -14 16 -25 23 -25 6 0 43 60 83 133 40 72 91 166 113
207 23 41 72 131 109 200 38 69 75 133 83 144 11 15 13 -66 13 -549 l-1 -567
-35 -19 c-19 -10 -38 -18 -43 -19 -4 0 -23 24 -42 53 -18 28 -70 104 -114 167
-44 63 -97 141 -118 172 -21 31 -41 57 -45 58 -4 0 -15 -14 -24 -32 l-17 -32
-24 29 c-25 28 -26 28 -40 9 -8 -10 -28 -46 -45 -79 -17 -33 -47 -89 -68 -125
-21 -36 -55 -99 -77 -140 -22 -41 -53 -97 -68 -125 -85 -153 -138 -251 -185
-339 -86 -163 -103 -187 -145 -211 -191 -108 -654 -378 -734 -428 l-64 -39
-31 33 c-17 19 -49 56 -71 84 -40 50 -204 250 -275 335 -77 92 -207 251 -275
335 -38 48 -80 99 -93 113 -13 15 -35 43 -50 62 -14 19 -42 53 -62 76 -19 22
-60 71 -90 107 -49 59 -80 82 -80 59 0 -5 -7 -17 -15 -28 -14 -18 -15 -18 -38
10 l-23 28 -16 -23 c-8 -13 -61 -109 -118 -214 -163 -303 -169 -313 -245 -450
-40 -71 -87 -158 -104 -192 -17 -35 -36 -63 -41 -63 -6 0 -27 11 -48 23 -20
13 -91 54 -157 92 -66 37 -190 109 -275 160 -85 50 -177 105 -205 121 -61 35
-96 55 -119 70 -15 9 -3 42 130 325 81 173 180 386 221 474 111 239 116 249
187 400 36 77 69 141 73 142 5 1 22 -15 38 -36 83 -106 230 -287 240 -296 6
-5 31 -35 56 -66 24 -31 71 -89 104 -129 135 -165 162 -199 215 -264 l55 -67
26 32 26 32 22 -28 c13 -17 25 -25 31 -19 5 5 66 115 135 244 70 129 131 240
135 245 4 6 31 55 60 110 105 200 143 270 150 280 4 6 52 91 105 190 54 99
138 254 188 345 49 91 104 192 122 225 112 211 249 455 255 455 4 0 20 -19 37
-42z m1286 -1875 c8 -10 47 -65 86 -123 38 -58 95 -141 126 -185 30 -44 55
-83 55 -87 0 -6 -140 -90 -255 -153 -27 -15 -54 -31 -60 -35 -10 -8 -142 -85
-235 -138 -25 -14 -63 -37 -85 -51 -22 -14 -57 -33 -78 -43 l-37 -17 11 22 c7
12 55 101 107 197 52 96 107 198 122 225 15 28 68 125 119 217 50 91 91 171
91 177 0 16 15 13 33 -6z m-2445 -353 c33 -41 108 -133 166 -205 59 -71 137
-166 173 -210 36 -44 82 -100 103 -125 21 -25 73 -88 117 -141 43 -53 135
-166 206 -252 70 -86 127 -160 127 -165 0 -10 -37 -34 -190 -124 -269 -158
-274 -160 -310 -160 -27 1 -82 28 -224 111 -104 61 -190 111 -192 111 -1 0
-39 23 -83 50 -44 28 -83 50 -86 50 -3 0 -24 12 -48 27 -23 15 -51 31 -62 37
-89 48 -258 153 -262 163 -3 6 38 90 90 185 52 95 109 200 127 233 41 74 190
348 237 433 19 35 38 62 43 60 4 -2 35 -37 68 -78z m-595 -2887 c15 -29 71
-99 123 -155 111 -119 162 -214 188 -343 9 -44 24 -125 35 -180 11 -55 33
-133 49 -172 l30 -73 -98 0 -99 0 -20 55 c-11 30 -32 121 -45 202 -14 82 -31
176 -39 210 -18 75 -78 197 -100 201 -42 9 -203 -166 -268 -291 -22 -43 -39
-80 -37 -82 1 -2 41 12 88 30 95 38 117 41 163 21 46 -19 74 -54 88 -108 12
-42 11 -53 -7 -95 -16 -41 -27 -52 -73 -74 -29 -15 -78 -32 -109 -39 -31 -7
-75 -21 -100 -31 -90 -39 -186 -15 -222 56 -30 60 -7 215 50 341 63 140 184
293 277 352 23 15 43 31 43 36 0 5 -23 39 -51 77 -28 38 -49 74 -47 81 5 15
83 37 123 35 25 -2 34 -10 58 -54z m1118 10 c1 -10 0 -48 -1 -84 l-2 -66 66
-6 c106 -10 180 -50 215 -115 15 -29 13 -192 -4 -352 -22 -200 -20 -236 10
-264 l25 -23 -23 -10 c-13 -6 -57 -14 -98 -18 -107 -10 -105 -15 -90 198 6 95
15 223 20 285 13 159 -1 200 -82 238 -65 30 -94 30 -180 2 -54 -17 -77 -32
-112 -69 -50 -54 -67 -103 -66 -196 0 -85 17 -140 52 -176 17 -16 28 -32 25
-34 -9 -10 -165 -25 -190 -19 -27 7 -32 24 -55 187 -14 105 5 164 76 234 43
42 140 92 196 101 l37 7 0 93 0 93 58 4 c31 2 72 4 90 5 24 2 32 -2 33 -15z
m1118 -46 c24 -8 39 -22 47 -43 11 -27 9 -41 -21 -130 -19 -54 -35 -105 -35
-111 0 -10 24 -13 89 -13 96 0 138 -10 148 -36 8 -21 -23 -75 -202 -349 -89
-137 -87 -133 -74 -156 12 -23 0 -38 -31 -39 -8 0 -40 -3 -70 -6 -52 -6 -56
-4 -69 19 -16 29 -5 69 33 127 66 100 136 210 136 215 0 2 22 35 49 72 27 38
51 79 53 93 l3 25 -115 6 c-63 4 -116 7 -117 8 -10 5 2 58 33 146 29 84 34
107 24 124 -12 24 -29 26 -99 9 -48 -11 -51 -13 -51 -43 0 -63 -13 -96 -56
-145 -51 -56 -99 -71 -155 -47 -59 24 -64 38 -34 96 20 37 25 58 20 80 -8 36
5 45 95 61 36 7 103 20 150 30 99 21 201 24 249 7z m-818 -1840 c8 -7 21 -27
27 -46 7 -19 21 -40 31 -47 13 -9 22 -32 26 -66 4 -29 14 -66 23 -83 8 -16 34
-86 57 -155 24 -69 64 -183 89 -255 26 -71 45 -141 44 -155 -2 -19 -12 -27
-50 -39 -25 -7 -53 -11 -60 -8 -8 3 -25 32 -38 66 l-22 60 -64 -34 c-61 -33
-111 -43 -148 -29 -57 22 42 122 126 128 60 5 63 14 38 98 -12 40 -26 82 -31
93 -4 11 -14 42 -22 68 -7 27 -17 49 -22 50 -6 1 -19 -32 -30 -73 -11 -41 -23
-79 -26 -85 -3 -5 -16 -48 -28 -95 -23 -85 -53 -175 -74 -217 -9 -20 -18 -23
-68 -23 -49 0 -57 3 -62 21 -5 18 10 77 33 134 4 11 28 85 54 165 25 80 59
186 75 236 16 50 32 111 36 135 7 50 35 138 48 157 12 15 18 15 38 -1z m-1648
-26 c8 -8 12 -112 15 -319 2 -169 5 -312 7 -319 3 -8 29 -3 87 18 140 51 140
51 161 30 11 -10 21 -39 24 -63 5 -43 4 -44 -33 -60 -60 -25 -144 -54 -194
-68 -25 -6 -60 -18 -78 -26 -18 -8 -38 -14 -45 -14 -25 0 -67 25 -67 40 1 8
-1 189 -4 402 -3 277 -1 388 7 391 22 7 110 -2 120 -12z m710 -3 c26 -13 47
-27 47 -33 0 -5 -32 -53 -71 -105 -81 -109 -123 -170 -162 -239 -20 -36 -13
-57 33 -102 15 -14 40 -43 56 -65 16 -21 39 -49 52 -63 12 -13 50 -63 83 -109
69 -97 68 -106 -17 -115 l-52 -6 -40 48 c-64 75 -155 193 -176 226 -11 17 -39
53 -63 81 -23 28 -43 57 -43 63 0 13 78 161 89 171 3 3 11 12 16 21 67 110
172 249 189 249 6 0 32 -10 59 -22z m1791 7 c25 -4 50 -12 54 -19 10 -16 12
-57 15 -430 l2 -340 -38 -48 c-21 -26 -43 -46 -48 -42 -5 3 -9 21 -9 39 0 23
-6 38 -19 44 -11 6 -35 40 -55 75 -20 36 -41 68 -45 71 -5 3 -26 36 -47 73
-20 37 -40 69 -44 72 -3 3 -9 13 -13 23 -16 43 -22 6 -23 -141 -1 -205 -1
-204 -54 -219 -37 -11 -47 -10 -72 5 -28 16 -29 20 -24 65 8 58 8 573 0 678
-5 66 -3 77 12 83 25 10 37 -7 37 -53 0 -29 6 -46 24 -62 13 -13 23 -17 23
-10 0 7 5 9 10 6 6 -3 10 -13 10 -22 0 -16 169 -276 210 -323 11 -13 23 -20
27 -17 3 4 1 115 -5 248 -7 133 -9 246 -6 251 3 5 12 7 19 4 7 -2 33 -8 59
-11z m-1311 -41 c20 -20 37 -40 37 -44 0 -7 -113 -120 -175 -174 -29 -26 -30
-26 -10 -41 11 -7 64 -51 117 -97 74 -63 101 -93 114 -127 l18 -45 -139 -133
c-77 -73 -148 -135 -157 -138 -22 -8 -88 41 -88 65 0 10 44 59 98 110 139 133
134 118 53 187 -38 32 -92 76 -120 98 -50 40 -76 89 -64 122 3 8 28 36 56 61
27 26 84 80 125 120 41 39 80 72 86 72 6 0 28 -16 49 -36z m-496 -324 c15 -27
31 -50 36 -50 4 0 7 -12 7 -27 0 -33 -63 -105 -84 -97 -19 7 -72 75 -93 119
-17 37 -17 38 1 49 10 6 32 21 50 33 17 12 36 22 43 22 6 1 24 -21 40 -49z" fill="#08949a" class="color000 svgShape"></path><path d="M6759 5261 c-21 -22 -29 -39 -29 -66 0 -42 22 -90 45 -99 100 -38
176 73 109 161 -34 44 -82 46 -125 4z" fill="#08949a" class="color000 svgShape"></path></g></svg></g></svg>